<svg width="33" height="28" viewBox="0 0 33 28" fill="none" xmlns="http://www.w3.org/2000/svg">
<g clip-path="url(#clip0_215_834)">
<path d="M31.8869 4.66074C31.2285 3.94508 30.3192 3.52219 29.2846 3.52219H24.0798V3.45713C24.0798 2.64387 23.7663 1.86315 23.2333 1.34267C22.7002 0.789657 21.9791 0.464355 21.1952 0.464355H11.7891C10.9739 0.464355 10.2527 0.789657 9.71972 1.34267C9.1867 1.89568 8.87316 2.64387 8.87316 3.45713V3.52219H3.69976C2.66508 3.52219 1.75582 3.94508 1.09739 4.66074C0.438955 5.34387 0 6.31978 0 7.36074V23.5607C0 24.6342 0.407601 25.5776 1.09739 26.2607C1.75582 26.9439 2.69644 27.3993 3.69976 27.3993H29.2846C30.3192 27.3993 31.2285 26.9764 31.8869 26.2607C32.5454 25.5776 32.9843 24.6017 32.9843 23.5607V7.36074C32.9843 6.28725 32.5767 5.34387 31.8869 4.66074ZM31.3539 23.5607H31.3226C31.3226 24.1463 31.1031 24.6668 30.7268 25.0571C30.3506 25.4475 29.8489 25.6752 29.2846 25.6752H3.69976C3.13539 25.6752 2.63373 25.4475 2.25748 25.0571C1.88124 24.6668 1.66176 24.1463 1.66176 23.5607V7.36074C1.66176 6.7752 1.88124 6.25472 2.25748 5.86436C2.63373 5.47399 3.13539 5.24628 3.69976 5.24628H9.75107C10.2214 5.24628 10.5976 4.85592 10.5976 4.36797V3.4246C10.5976 3.06677 10.723 2.74146 10.9425 2.51375C11.162 2.28604 11.4755 2.15592 11.8204 2.15592H21.1952C21.5401 2.15592 21.8537 2.28604 22.0732 2.51375C22.2926 2.74146 22.4181 3.06677 22.4181 3.4246V4.36797C22.4181 4.85592 22.7943 5.24628 23.2646 5.24628H29.3159C29.8803 5.24628 30.3819 5.47399 30.7582 5.86436C31.1344 6.25472 31.3539 6.7752 31.3539 7.36074V23.5607Z" fill="#3A3A3A"/>
<path d="M16.4921 7.45825C14.36 7.45825 12.4161 8.3691 11.0365 9.80042C9.62561 11.2643 8.77905 13.2486 8.77905 15.4607C8.77905 17.6727 9.65696 19.6896 11.0365 21.1209C12.4475 22.5848 14.36 23.4631 16.4921 23.4631C18.6242 23.4631 20.5681 22.5522 21.9477 21.1209C23.3586 19.657 24.2052 17.6727 24.2052 15.4607C24.2052 13.2486 23.3273 11.2317 21.9477 9.80042C20.5681 8.3691 18.6242 7.45825 16.4921 7.45825ZM20.7562 19.9173C19.6589 21.0233 18.1539 21.739 16.4921 21.739C14.8304 21.739 13.3254 21.0233 12.228 19.9173C11.1306 18.7787 10.4722 17.2173 10.4722 15.4932C10.4722 13.7691 11.162 12.2076 12.228 11.0691C13.3254 9.93054 14.8304 9.24741 16.4921 9.24741C18.1539 9.24741 19.6589 9.96307 20.7562 11.0691C21.8536 12.2076 22.5121 13.7691 22.5121 15.4932C22.5434 17.2173 21.8536 18.7787 20.7562 19.9173Z" fill="#3A3A3A"/>
<path d="M27.6543 10.6137C28.5028 10.6137 29.1906 9.90009 29.1906 9.01976C29.1906 8.13943 28.5028 7.42578 27.6543 7.42578C26.8058 7.42578 26.1179 8.13943 26.1179 9.01976C26.1179 9.90009 26.8058 10.6137 27.6543 10.6137Z" fill="#3A3A3A"/>
</g>
<defs>
<clipPath id="clip0_215_834">
<rect width="33" height="27" fill="white" transform="translate(0 0.399414)"/>
</clipPath>
</defs>
</svg>
