<svg width="338" height="320" viewBox="0 0 338 320" fill="none" xmlns="http://www.w3.org/2000/svg">
<circle cx="162" cy="94" r="176" fill="url(#paint0_linear_413_393)"/>
<circle cx="131" cy="144" r="176" fill="url(#paint1_linear_413_393)"/>
<circle cx="109" cy="125" r="176" fill="url(#paint2_linear_413_393)"/>
<rect x="-7.55966" y="3.52196" width="24.7442" height="27.6651" rx="11" transform="matrix(0.326324 -0.945258 0.93362 0.358264 21.6191 112.332)" stroke="white" stroke-width="12"/>
<path fill-rule="evenodd" clip-rule="evenodd" d="M76.6853 120.565L73.2509 114L76.6853 107.435C78.016 104.891 78.7839 101.32 78.7839 97.4694C78.7839 90.0304 75.9125 84 72.3704 84H57.1975C53.6554 84 50.7839 90.0304 50.7839 97.4694C50.7839 101.32 51.5519 104.891 52.8826 107.435L56.317 114L52.8826 120.565C51.5519 123.109 50.7839 126.68 50.7839 130.531C50.7839 137.97 53.6554 144 57.1975 144H72.3704C75.9125 144 78.7839 137.97 78.7839 130.531C78.7839 126.68 78.016 123.109 76.6853 120.565Z" stroke="white" stroke-width="12"/>
<rect x="3.64378" y="-7.82113" width="24.7442" height="27.6651" rx="11" transform="matrix(0.326324 0.945258 -0.93362 0.358264 90.5622 96.707)" stroke="white" stroke-width="12"/>
<defs>
<linearGradient id="paint0_linear_413_393" x1="-14" y1="270" x2="355" y2="19.5" gradientUnits="userSpaceOnUse">
<stop stop-color="#C630F8" stop-opacity="0"/>
<stop offset="1" stop-color="#C72FF8" stop-opacity="0.919792"/>
</linearGradient>
<linearGradient id="paint1_linear_413_393" x1="-45" y1="-32" x2="195.5" y2="345.5" gradientUnits="userSpaceOnUse">
<stop stop-color="#C630F8" stop-opacity="0"/>
<stop offset="1" stop-color="#2F56F8"/>
</linearGradient>
<linearGradient id="paint2_linear_413_393" x1="-67" y1="-51" x2="240.5" y2="235.5" gradientUnits="userSpaceOnUse">
<stop stop-color="#5264F9"/>
<stop offset="1" stop-color="#3AF9EF"/>
</linearGradient>
</defs>
</svg>
