<svg width="183" height="184" viewBox="0 0 183 184" fill="none" xmlns="http://www.w3.org/2000/svg">
<circle cx="89" cy="87" r="62" fill="#40CEF2"/>
<path fill-rule="evenodd" clip-rule="evenodd" d="M104.835 73.477L89.5 67.1194C89.1159 66.9602 88.6841 66.9601 88.3 67.1194L72.9648 73.477C72.3807 73.7192 72 74.2886 72 74.9201V82.6486C72 93.2902 78.4415 102.863 88.3087 106.884C88.6877 107.039 89.1123 107.039 89.4913 106.884C99.3584 102.863 105.8 93.2903 105.8 82.6486V74.9201C105.8 74.2886 105.419 73.7192 104.835 73.477ZM87.992 89.1744L95.8984 81.2798C96.6167 80.5625 97.7813 80.5625 98.4997 81.2798C99.2181 81.9971 99.218 83.1601 98.4996 83.8773L89.2927 93.0706C88.5742 93.788 87.4096 93.7878 86.6914 93.0706L81.5506 87.9375C80.8322 87.2202 80.8322 86.0572 81.5506 85.34C82.269 84.6227 83.4337 84.6226 84.152 85.34L87.992 89.1744Z" fill="white"/>
<circle cx="174" cy="35" r="9" fill="#40CEF2"/>
<circle cx="46" cy="175" r="9" fill="#B52FF8"/>
<circle cx="156.5" cy="153.5" r="4.5" fill="#B52FF8"/>
<circle cx="12.5" cy="94.5" r="4.5" fill="#40CEF2"/>
<circle cx="9" cy="9" r="9" fill="#B52FF8"/>
</svg>
