<svg width="375" height="360" viewBox="0 0 375 360" fill="none" xmlns="http://www.w3.org/2000/svg">
<path d="M137.914 -66.95C174.17 -109.557 235.686 -120.185 284.136 -92.2128L387.834 -32.3426C408.27 -20.5438 418.488 -14.6445 426.235 -8.32734C467.731 25.5098 482.899 82.1158 463.881 132.168C460.33 141.512 454.431 151.73 442.632 172.166V172.166C426.299 200.457 418.132 214.602 410.013 223.843C365.801 274.164 289.667 280.406 237.85 237.958C228.334 230.163 217.973 217.536 197.249 192.284L188.895 182.104C186.961 179.747 185.994 178.569 185.002 177.419C179.184 170.672 172.657 164.57 165.533 159.218C164.319 158.306 163.079 157.42 160.598 155.649V155.649C144.277 144 136.117 138.175 129.844 132.227C91.9433 96.292 80.5466 40.4978 101.319 -7.42233C104.757 -15.3538 109.979 -23.9119 120.424 -41.028L127.247 -52.21C130.411 -57.3953 133.978 -62.3238 137.914 -66.95V-66.95Z" fill="#CB3EF9"/>
<path d="M201.253 -100.512C247.442 -144.45 320.505 -142.624 364.443 -96.4343L452.626 -3.73161C496.684 42.5847 494.853 115.848 448.536 159.906L393.405 212.349C344.85 258.536 264.415 227.361 259.229 160.549V160.549C256.324 123.123 227.48 92.7847 190.231 88.1302V88.1302C124.067 79.8627 97.2528 -1.58323 145.565 -47.5397L201.253 -100.512Z" fill="#3AF9EF"/>
</svg>
