<svg width="338" height="320" viewBox="0 0 338 320" fill="none" xmlns="http://www.w3.org/2000/svg">
<circle cx="162" cy="94" r="176" fill="url(#paint0_linear_366_402)"/>
<circle cx="131" cy="144" r="176" fill="url(#paint1_linear_366_402)"/>
<circle cx="109" cy="125" r="176" fill="url(#paint2_linear_366_402)"/>
<rect x="-7.55966" y="3.52196" width="24.7442" height="27.6651" rx="11" transform="matrix(0.326324 -0.945258 0.93362 0.358264 19.6191 84.3315)" stroke="white" stroke-width="12"/>
<path fill-rule="evenodd" clip-rule="evenodd" d="M74.6853 92.5652L71.2509 86L74.6853 79.4348C76.016 76.8911 76.7839 73.3204 76.7839 69.4694C76.7839 62.0304 73.9125 56 70.3704 56H55.1975C51.6554 56 48.7839 62.0304 48.7839 69.4694C48.7839 73.3204 49.5519 76.8911 50.8826 79.4348L54.317 86L50.8826 92.5652C49.5519 95.1089 48.7839 98.6796 48.7839 102.531C48.7839 109.97 51.6554 116 55.1975 116H70.3704C73.9125 116 76.7839 109.97 76.7839 102.531C76.7839 98.6796 76.016 95.1089 74.6853 92.5652Z" stroke="white" stroke-width="12"/>
<rect x="3.64378" y="-7.82113" width="24.7442" height="27.6651" rx="11" transform="matrix(0.326324 0.945258 -0.93362 0.358264 88.5622 68.7071)" stroke="white" stroke-width="12"/>
<path d="M39.8577 166.168C38.4017 166.168 37.0017 165.935 35.6577 165.468C34.3324 164.983 33.3057 164.367 32.5777 163.62L33.3897 162.024C34.0804 162.696 35.0044 163.265 36.1617 163.732C37.3377 164.18 38.5697 164.404 39.8577 164.404C41.0897 164.404 42.0884 164.255 42.8537 163.956C43.6377 163.639 44.2071 163.219 44.5617 162.696C44.9351 162.173 45.1217 161.595 45.1217 160.96C45.1217 160.195 44.8977 159.579 44.4497 159.112C44.0204 158.645 43.4511 158.281 42.7417 158.02C42.0324 157.74 41.2484 157.497 40.3897 157.292C39.5311 157.087 38.6724 156.872 37.8137 156.648C36.9551 156.405 36.1617 156.088 35.4337 155.696C34.7244 155.304 34.1457 154.791 33.6977 154.156C33.2684 153.503 33.0537 152.653 33.0537 151.608C33.0537 150.637 33.3057 149.751 33.8097 148.948C34.3324 148.127 35.1257 147.473 36.1897 146.988C37.2537 146.484 38.6164 146.232 40.2777 146.232C41.3791 146.232 42.4711 146.391 43.5537 146.708C44.6364 147.007 45.5697 147.427 46.3537 147.968L45.6537 149.62C44.8137 149.06 43.9177 148.649 42.9657 148.388C42.0324 148.127 41.1271 147.996 40.2497 147.996C39.0737 147.996 38.1031 148.155 37.3377 148.472C36.5724 148.789 36.0031 149.219 35.6297 149.76C35.2751 150.283 35.0977 150.88 35.0977 151.552C35.0977 152.317 35.3124 152.933 35.7417 153.4C36.1897 153.867 36.7684 154.231 37.4777 154.492C38.2057 154.753 38.9991 154.987 39.8577 155.192C40.7164 155.397 41.5657 155.621 42.4057 155.864C43.2644 156.107 44.0484 156.424 44.7577 156.816C45.4857 157.189 46.0644 157.693 46.4937 158.328C46.9417 158.963 47.1657 159.793 47.1657 160.82C47.1657 161.772 46.9044 162.659 46.3817 163.48C45.8591 164.283 45.0564 164.936 43.9737 165.44C42.9097 165.925 41.5377 166.168 39.8577 166.168ZM57.5043 166.14C55.9736 166.14 54.6296 165.823 53.4723 165.188C52.3149 164.535 51.4096 163.648 50.7563 162.528C50.1029 161.389 49.7763 160.092 49.7763 158.636C49.7763 157.18 50.0843 155.892 50.7003 154.772C51.3349 153.652 52.1936 152.775 53.2763 152.14C54.3776 151.487 55.6096 151.16 56.9723 151.16C58.3536 151.16 59.5763 151.477 60.6403 152.112C61.7229 152.728 62.5723 153.605 63.1883 154.744C63.8043 155.864 64.1123 157.161 64.1123 158.636C64.1123 158.729 64.1029 158.832 64.0843 158.944C64.0843 159.037 64.0843 159.14 64.0843 159.252H51.2883V157.768H63.0203L62.2363 158.356C62.2363 157.292 62.0029 156.349 61.5363 155.528C61.0883 154.688 60.4723 154.035 59.6883 153.568C58.9043 153.101 57.9989 152.868 56.9723 152.868C55.9643 152.868 55.0589 153.101 54.2563 153.568C53.4536 154.035 52.8283 154.688 52.3803 155.528C51.9323 156.368 51.7083 157.329 51.7083 158.412V158.72C51.7083 159.84 51.9509 160.829 52.4363 161.688C52.9403 162.528 53.6309 163.191 54.5083 163.676C55.4043 164.143 56.4216 164.376 57.5603 164.376C58.4563 164.376 59.2869 164.217 60.0523 163.9C60.8363 163.583 61.5083 163.097 62.0683 162.444L63.1883 163.732C62.5349 164.516 61.7136 165.113 60.7243 165.524C59.7536 165.935 58.6803 166.14 57.5043 166.14ZM65.9747 171.572C65.3774 171.572 64.8081 171.488 64.2667 171.32C63.7067 171.171 63.2401 170.937 62.8667 170.62L63.5667 169.108C64.1641 169.612 64.9294 169.864 65.8627 169.864C66.6467 169.864 67.2441 169.631 67.6547 169.164C68.0841 168.697 68.2987 168.007 68.2987 167.092V151.3H70.2867V167.092C70.2867 168.455 69.9134 169.537 69.1667 170.34C68.4387 171.161 67.3747 171.572 65.9747 171.572ZM69.3067 148.052C68.8961 148.052 68.5507 147.912 68.2707 147.632C67.9907 147.352 67.8507 147.016 67.8507 146.624C67.8507 146.232 67.9907 145.905 68.2707 145.644C68.5507 145.364 68.8961 145.224 69.3067 145.224C69.7174 145.224 70.0627 145.355 70.3427 145.616C70.6227 145.877 70.7627 146.204 70.7627 146.596C70.7627 147.007 70.6227 147.352 70.3427 147.632C70.0814 147.912 69.7361 148.052 69.3067 148.052ZM85.0543 166V162.752L84.9703 162.22V156.788C84.9703 155.537 84.6156 154.576 83.9063 153.904C83.2156 153.232 82.1796 152.896 80.7983 152.896C79.8463 152.896 78.941 153.055 78.0823 153.372C77.2236 153.689 76.4956 154.109 75.8983 154.632L75.0023 153.148C75.749 152.513 76.645 152.028 77.6903 151.692C78.7356 151.337 79.837 151.16 80.9943 151.16C82.8983 151.16 84.3636 151.636 85.3903 152.588C86.4356 153.521 86.9583 154.949 86.9583 156.872V166H85.0543ZM79.9863 166.14C78.885 166.14 77.9236 165.963 77.1023 165.608C76.2996 165.235 75.6836 164.731 75.2543 164.096C74.825 163.443 74.6103 162.696 74.6103 161.856C74.6103 161.091 74.7876 160.4 75.1423 159.784C75.5156 159.149 76.113 158.645 76.9343 158.272C77.7743 157.88 78.8943 157.684 80.2943 157.684H85.3623V159.168H80.3503C78.9316 159.168 77.9423 159.42 77.3823 159.924C76.841 160.428 76.5703 161.053 76.5703 161.8C76.5703 162.64 76.897 163.312 77.5503 163.816C78.2036 164.32 79.1183 164.572 80.2943 164.572C81.4143 164.572 82.3756 164.32 83.1783 163.816C83.9996 163.293 84.597 162.547 84.9703 161.576L85.4183 162.948C85.045 163.919 84.3916 164.693 83.4583 165.272C82.5436 165.851 81.3863 166.14 79.9863 166.14ZM100.106 166V146.4H108.562C110.746 146.4 112.435 146.839 113.63 147.716C114.843 148.593 115.45 149.835 115.45 151.44C115.45 152.504 115.198 153.4 114.694 154.128C114.209 154.856 113.537 155.407 112.678 155.78C111.838 156.153 110.914 156.34 109.906 156.34L110.382 155.668C111.633 155.668 112.706 155.864 113.602 156.256C114.517 156.629 115.226 157.199 115.73 157.964C116.234 158.711 116.486 159.644 116.486 160.764C116.486 162.425 115.87 163.713 114.638 164.628C113.425 165.543 111.586 166 109.122 166H100.106ZM102.178 164.292H109.094C110.811 164.292 112.127 164.003 113.042 163.424C113.957 162.827 114.414 161.884 114.414 160.596C114.414 159.327 113.957 158.403 113.042 157.824C112.127 157.227 110.811 156.928 109.094 156.928H101.954V155.22H108.422C109.99 155.22 111.203 154.921 112.062 154.324C112.939 153.727 113.378 152.84 113.378 151.664C113.378 150.469 112.939 149.583 112.062 149.004C111.203 148.407 109.99 148.108 108.422 148.108H102.178V164.292ZM127.039 166.14C125.509 166.14 124.165 165.823 123.007 165.188C121.85 164.535 120.945 163.648 120.291 162.528C119.638 161.389 119.311 160.092 119.311 158.636C119.311 157.18 119.619 155.892 120.235 154.772C120.87 153.652 121.729 152.775 122.811 152.14C123.913 151.487 125.145 151.16 126.507 151.16C127.889 151.16 129.111 151.477 130.175 152.112C131.258 152.728 132.107 153.605 132.723 154.744C133.339 155.864 133.647 157.161 133.647 158.636C133.647 158.729 133.638 158.832 133.619 158.944C133.619 159.037 133.619 159.14 133.619 159.252H120.823V157.768H132.555L131.771 158.356C131.771 157.292 131.538 156.349 131.071 155.528C130.623 154.688 130.007 154.035 129.223 153.568C128.439 153.101 127.534 152.868 126.507 152.868C125.499 152.868 124.594 153.101 123.791 153.568C122.989 154.035 122.363 154.688 121.915 155.528C121.467 156.368 121.243 157.329 121.243 158.412V158.72C121.243 159.84 121.486 160.829 121.971 161.688C122.475 162.528 123.166 163.191 124.043 163.676C124.939 164.143 125.957 164.376 127.095 164.376C127.991 164.376 128.822 164.217 129.587 163.9C130.371 163.583 131.043 163.097 131.603 162.444L132.723 163.732C132.07 164.516 131.249 165.113 130.259 165.524C129.289 165.935 128.215 166.14 127.039 166.14ZM156.062 151.16C157.257 151.16 158.293 151.393 159.17 151.86C160.066 152.308 160.757 152.999 161.242 153.932C161.746 154.865 161.998 156.041 161.998 157.46V166H160.01V157.656C160.01 156.107 159.637 154.94 158.89 154.156C158.162 153.353 157.126 152.952 155.782 152.952C154.774 152.952 153.897 153.167 153.15 153.596C152.422 154.007 151.853 154.613 151.442 155.416C151.05 156.2 150.854 157.152 150.854 158.272V166H148.866V157.656C148.866 156.107 148.493 154.94 147.746 154.156C146.999 153.353 145.954 152.952 144.61 152.952C143.621 152.952 142.753 153.167 142.006 153.596C141.259 154.007 140.681 154.613 140.27 155.416C139.878 156.2 139.682 157.152 139.682 158.272V166H137.694V151.3H139.598V155.276L139.29 154.576C139.738 153.512 140.457 152.681 141.446 152.084C142.454 151.468 143.639 151.16 145.002 151.16C146.439 151.16 147.662 151.524 148.67 152.252C149.678 152.961 150.331 154.035 150.63 155.472L149.846 155.164C150.275 153.969 151.031 153.008 152.114 152.28C153.215 151.533 154.531 151.16 156.062 151.16ZM166.297 159.28V157.544H173.633V159.28H166.297ZM183.471 166L174.791 146.4H177.031L185.151 164.852H183.919L192.095 146.4H194.195L185.515 166H183.471ZM196.538 166V151.3H198.526V166H196.538ZM197.546 148.052C197.135 148.052 196.79 147.912 196.51 147.632C196.23 147.352 196.09 147.016 196.09 146.624C196.09 146.232 196.23 145.905 196.51 145.644C196.79 145.364 197.135 145.224 197.546 145.224C197.956 145.224 198.302 145.355 198.582 145.616C198.862 145.877 199.002 146.204 199.002 146.596C199.002 147.007 198.862 147.352 198.582 147.632C198.32 147.912 197.975 148.052 197.546 148.052ZM211.561 151.16C212.756 151.16 213.801 151.393 214.697 151.86C215.612 152.308 216.321 152.999 216.825 153.932C217.348 154.865 217.609 156.041 217.609 157.46V166H215.621V157.656C215.621 156.107 215.229 154.94 214.445 154.156C213.68 153.353 212.597 152.952 211.197 152.952C210.152 152.952 209.237 153.167 208.453 153.596C207.688 154.007 207.09 154.613 206.661 155.416C206.25 156.2 206.045 157.152 206.045 158.272V166H204.057V151.3H205.961V155.332L205.653 154.576C206.12 153.512 206.866 152.681 207.893 152.084C208.92 151.468 210.142 151.16 211.561 151.16ZM228.831 166.14C227.431 166.14 226.171 165.823 225.051 165.188C223.95 164.553 223.082 163.676 222.447 162.556C221.812 161.417 221.495 160.111 221.495 158.636C221.495 157.143 221.812 155.836 222.447 154.716C223.082 153.596 223.95 152.728 225.051 152.112C226.171 151.477 227.431 151.16 228.831 151.16C230.119 151.16 231.267 151.449 232.275 152.028C233.302 152.607 234.114 153.456 234.711 154.576C235.327 155.677 235.635 157.031 235.635 158.636C235.635 160.223 235.336 161.576 234.739 162.696C234.142 163.816 233.33 164.675 232.303 165.272C231.295 165.851 230.138 166.14 228.831 166.14ZM228.971 164.376C230.016 164.376 230.95 164.143 231.771 163.676C232.611 163.191 233.264 162.519 233.731 161.66C234.216 160.783 234.459 159.775 234.459 158.636C234.459 157.479 234.216 156.471 233.731 155.612C233.264 154.753 232.611 154.091 231.771 153.624C230.95 153.139 230.016 152.896 228.971 152.896C227.944 152.896 227.02 153.139 226.199 153.624C225.378 154.091 224.724 154.753 224.239 155.612C223.754 156.471 223.511 157.479 223.511 158.636C223.511 159.775 223.754 160.783 224.239 161.66C224.724 162.519 225.378 163.191 226.199 163.676C227.02 164.143 227.944 164.376 228.971 164.376ZM234.515 166V161.576L234.711 158.608L234.431 155.64V145.224H236.419V166H234.515ZM247.948 166.14C246.529 166.14 245.25 165.823 244.112 165.188C242.992 164.535 242.105 163.648 241.452 162.528C240.798 161.389 240.472 160.092 240.472 158.636C240.472 157.161 240.798 155.864 241.452 154.744C242.105 153.624 242.992 152.747 244.112 152.112C245.232 151.477 246.51 151.16 247.948 151.16C249.404 151.16 250.692 151.477 251.812 152.112C252.95 152.747 253.837 153.624 254.472 154.744C255.125 155.864 255.452 157.161 255.452 158.636C255.452 160.092 255.125 161.389 254.472 162.528C253.837 163.648 252.95 164.535 251.812 165.188C250.673 165.823 249.385 166.14 247.948 166.14ZM247.948 164.376C249.012 164.376 249.954 164.143 250.776 163.676C251.597 163.191 252.241 162.519 252.708 161.66C253.193 160.783 253.436 159.775 253.436 158.636C253.436 157.479 253.193 156.471 252.708 155.612C252.241 154.753 251.597 154.091 250.776 153.624C249.954 153.139 249.021 152.896 247.976 152.896C246.93 152.896 245.997 153.139 245.176 153.624C244.354 154.091 243.701 154.753 243.216 155.612C242.73 156.471 242.488 157.479 242.488 158.636C242.488 159.775 242.73 160.783 243.216 161.66C243.701 162.519 244.354 163.191 245.176 163.676C245.997 164.143 246.921 164.376 247.948 164.376Z" fill="white"/>
<defs>
<linearGradient id="paint0_linear_366_402" x1="-14" y1="270" x2="355" y2="19.5" gradientUnits="userSpaceOnUse">
<stop stop-color="#C630F8" stop-opacity="0"/>
<stop offset="1" stop-color="#C72FF8" stop-opacity="0.919792"/>
</linearGradient>
<linearGradient id="paint1_linear_366_402" x1="-45" y1="-32" x2="195.5" y2="345.5" gradientUnits="userSpaceOnUse">
<stop stop-color="#C630F8" stop-opacity="0"/>
<stop offset="1" stop-color="#2F56F8"/>
</linearGradient>
<linearGradient id="paint2_linear_366_402" x1="-67" y1="-51" x2="240.5" y2="235.5" gradientUnits="userSpaceOnUse">
<stop stop-color="#5264F9"/>
<stop offset="1" stop-color="#3AF9EF"/>
</linearGradient>
</defs>
</svg>
