<svg width="183" height="184" viewBox="0 0 183 184" fill="none" xmlns="http://www.w3.org/2000/svg">
<circle cx="94" cy="87" r="62" fill="#40CEF2"/>
<circle cx="174" cy="35" r="9" fill="#40CEF2"/>
<circle cx="46" cy="175" r="9" fill="#B52FF8"/>
<circle cx="156.5" cy="153.5" r="4.5" fill="#B52FF8"/>
<circle cx="12.5" cy="94.5" r="4.5" fill="#40CEF2"/>
<circle cx="9" cy="9" r="9" fill="#B52FF8"/>
<path d="M101.159 80.1056L94 86.9999M94 86.9999L86.8405 93.8941M94 86.9999L101.159 93.8941M94 86.9999L86.8405 80.1056M114.25 74.8125L114.25 99.1875C114.25 103.226 110.85 106.5 106.656 106.5H81.3438C77.1498 106.5 73.75 103.226 73.75 99.1875V74.8125C73.75 70.7739 77.1498 67.5 81.3438 67.5H106.656C110.85 67.5 114.25 70.7739 114.25 74.8125Z" stroke="white" stroke-width="5" stroke-linecap="round"/>
</svg>
