<svg width="84" height="61" viewBox="0 0 84 61" fill="none" xmlns="http://www.w3.org/2000/svg">
<rect x="-6.29972" y="2.93497" width="21.3" height="25.6651" rx="10" transform="matrix(0.326324 -0.945258 0.93362 0.358264 2.01588 28.9632)" stroke="white" stroke-width="10"/>
<path fill-rule="evenodd" clip-rule="evenodd" d="M52.4389 35.971L49.3725 30.5L52.4389 25.029C53.6271 22.9092 54.3127 19.9336 54.3127 16.7245C54.3127 10.5254 51.7489 5.5 48.5863 5.5H35.0392C31.8765 5.5 29.3127 10.5254 29.3127 16.7245C29.3127 19.9336 29.9984 22.9092 31.1865 25.029L34.253 30.5L31.1865 35.971C29.9984 38.0908 29.3127 41.0664 29.3127 44.2755C29.3127 50.4746 31.8765 55.5 35.0392 55.5H48.5863C51.7489 55.5 54.3127 50.4746 54.3127 44.2755C54.3127 41.0664 53.6271 38.0908 52.4389 35.971Z" stroke="white" stroke-width="10"/>
<rect x="3.03648" y="-6.51761" width="21.3" height="25.6651" rx="10" transform="matrix(0.326324 0.945258 -0.93362 0.358264 66.8986 15.3003)" stroke="white" stroke-width="10"/>
</svg>
