<svg width="258" height="329" viewBox="0 0 258 329" fill="none" xmlns="http://www.w3.org/2000/svg">
<path d="M142.882 -77.8825C168.996 -103.996 182.052 -117.052 195.497 -125.114C235.757 -149.254 286.042 -149.254 326.302 -125.114C339.747 -117.052 352.803 -103.996 378.916 -77.8824L405.547 -51.2522C432.625 -24.1743 446.164 -10.6353 454.399 3.38462C477.757 43.1513 477.757 92.4471 454.399 132.214C446.164 146.234 432.625 159.773 405.547 186.851L384.766 207.631C372.089 220.308 365.75 226.647 360.106 231.138C307.163 273.262 230.507 266.564 185.672 215.896C180.892 210.494 175.749 203.152 165.462 188.469L164.027 186.419C163.718 185.978 163.563 185.758 163.409 185.539C154.676 173.184 143.808 162.486 131.317 153.948C131.097 153.798 130.874 153.647 130.428 153.345V153.345C127.754 151.534 126.417 150.628 125.363 149.882C61.8622 104.963 53.1997 14.0714 107.072 -42.0349C107.967 -42.9665 109.108 -44.1082 111.392 -46.3915L142.882 -77.8825Z" fill="#B52FF8"/>
<path d="M201.521 -81.1492C207.048 -85.0048 209.811 -86.9325 212.229 -88.4417C260.654 -118.662 324.09 -107.362 359.101 -62.2801C360.85 -60.0287 362.777 -57.2653 366.633 -51.7384L415.278 17.9915C418.828 23.0812 420.603 25.6261 422.002 27.8475C452.602 76.4417 441.221 140.338 395.724 175.377C393.644 176.979 391.099 178.754 386.009 182.305L332.46 219.661C281.943 254.903 212.205 222.379 206.735 161.027C204.226 132.881 186.906 108.049 161.439 95.8053C105.163 68.7498 98.3516 -9.17718 149.563 -44.9031L201.521 -81.1492Z" fill="#40CEF2"/>
</svg>
