<svg width="25" height="25" viewBox="0 0 25 25" fill="none" xmlns="http://www.w3.org/2000/svg">
<path fill-rule="evenodd" clip-rule="evenodd" d="M11.7598 3.25C6.92727 3.25 3.00977 7.16751 3.00977 12C3.00977 16.8325 6.92727 20.75 11.7598 20.75C16.5923 20.75 20.5098 16.8325 20.5098 12C20.5098 7.16751 16.5923 3.25 11.7598 3.25ZM1.50977 12C1.50977 6.33908 6.09885 1.75 11.7598 1.75C17.4207 1.75 22.0098 6.33908 22.0098 12C22.0098 14.5605 21.0709 16.9017 19.5186 18.6982L22.7901 21.9697C23.083 22.2626 23.083 22.7374 22.7901 23.0303C22.4972 23.3232 22.0223 23.3232 21.7294 23.0303L18.458 19.7589C16.6615 21.3111 14.3203 22.25 11.7598 22.25C6.09885 22.25 1.50977 17.6609 1.50977 12Z" fill="white"/>
</svg>
